<svg width="12" height="16" viewBox="0 0 12 16" fill="none" xmlns="http://www.w3.org/2000/svg">
<path fill-rule="evenodd" clip-rule="evenodd" d="M6.00008 2.6665V0.666504L3.33341 3.33317L6.00008 5.99984V3.99984C8.20675 3.99984 10.0001 5.79317 10.0001 7.99984C10.0001 8.67317 9.83341 9.31317 9.53341 9.8665L10.5067 10.8398C11.0267 10.0198 11.3334 9.0465 11.3334 7.99984C11.3334 5.05317 8.94675 2.6665 6.00008 2.6665ZM6.00008 11.9998C3.79341 11.9998 2.00008 10.2065 2.00008 7.99984C2.00008 7.3265 2.16675 6.6865 2.46675 6.13317L1.49341 5.15984C0.973415 5.97984 0.666748 6.95317 0.666748 7.99984C0.666748 10.9465 3.05341 13.3332 6.00008 13.3332V15.3332L8.66675 12.6665L6.00008 9.99984V11.9998Z" fill="white"/>
</svg>
