<svg width="18" height="19" viewBox="0 0 18 19" fill="none" xmlns="http://www.w3.org/2000/svg">
<path d="M11.3709 12.5564H1.95645L0.638271 14.4924C-0.653749 16.3801 0.0787982 17.9358 2.26638 17.9358C4.45395 17.9358 7.29761 16.3862 8.58761 14.4924L9.06457 13.7921V18.9964H11.6808V12.5564H11.3709Z" fill="black"/>
<path d="M7.59744 9.97661L7.59342 9.98265L4.02527 7.2356V11.9529H9.86149L9.85546 8.28612L7.60348 9.98466L7.59744 9.97661Z" fill="black"/>
<path d="M9.83535 6.72046H4.34729L7.60551 9.22802L9.85347 7.52546V7.02233C9.85145 6.92171 9.8434 6.82108 9.83535 6.72046Z" fill="black"/>
<path d="M3.42154 11.9536V6.11733H9.72869C9.55435 5.46827 9.20648 4.87898 8.72244 4.41275C7.99923 3.71182 7.03082 3.32113 6.02369 3.32399C5.01508 3.32169 4.04539 3.71303 3.32091 4.41476C2.96905 4.75174 2.68878 5.15622 2.49686 5.60403C2.30495 6.05183 2.20533 6.53374 2.20398 7.02094L2.22008 11.9536H3.42154Z" fill="black"/>
<path d="M13.9449 3.09768H13.2827V6.46861C13.3571 6.61307 13.3964 6.77303 13.3975 6.93551C13.3975 7.14288 13.336 7.3456 13.2207 7.51803C13.1055 7.69045 12.9418 7.82484 12.7502 7.9042C12.5586 7.98356 12.3478 8.00433 12.1444 7.96387C11.941 7.92341 11.7542 7.82355 11.6075 7.67691C11.4609 7.53028 11.361 7.34345 11.3206 7.14006C11.2801 6.93667 11.3009 6.72585 11.3803 6.53426C11.4596 6.34267 11.594 6.17892 11.7664 6.0637C11.9389 5.94849 12.1416 5.887 12.3489 5.887C12.4607 5.88856 12.5715 5.90827 12.677 5.94536V3.09768V2.20414H14.5406V0.481445H12.0732V3.09768H7.57532C8.15596 3.31039 8.68532 3.64295 9.12896 4.07374C9.53511 4.46484 9.85844 4.93363 10.0797 5.45223C10.301 5.97084 10.4157 6.52865 10.417 7.09248L10.427 11.9386H17.4848L17.509 6.74029C17.5154 6.26676 17.4281 5.79664 17.2522 5.35694C17.0763 4.91724 16.8153 4.51663 16.4841 4.17814C16.1529 3.83964 15.7581 3.56994 15.3223 3.38452C14.8865 3.1991 14.4184 3.10162 13.9449 3.09768Z" fill="black"/>
<path d="M12.351 7.38073C12.5966 7.38073 12.7958 7.18161 12.7958 6.93597C12.7958 6.69034 12.5966 6.49121 12.351 6.49121C12.1054 6.49121 11.9062 6.69034 11.9062 6.93597C11.9062 7.18161 12.1054 7.38073 12.351 7.38073Z" fill="black"/>
</svg>
