<svg width="14" height="15" viewBox="0 0 14 15" fill="none" xmlns="http://www.w3.org/2000/svg">
<path fill-rule="evenodd" clip-rule="evenodd" d="M2.965 6.57395C4.045 8.69645 5.785 10.4289 7.9075 11.5164L9.5575 9.86645C9.76 9.66395 10.06 9.59645 10.3225 9.68645C11.1625 9.96395 12.07 10.1139 13 10.1139C13.4125 10.1139 13.75 10.4514 13.75 10.8639V13.4814C13.75 13.8939 13.4125 14.2314 13 14.2314C5.9575 14.2314 0.25 8.52395 0.25 1.48145C0.25 1.06895 0.5875 0.731445 1 0.731445H3.625C4.0375 0.731445 4.375 1.06895 4.375 1.48145C4.375 2.41895 4.525 3.31895 4.8025 4.15895C4.885 4.42145 4.825 4.71395 4.615 4.92395L2.965 6.57395Z" fill="black"/>
</svg>
