<svg width="15" height="17" viewBox="0 0 15 17" fill="none" xmlns="http://www.w3.org/2000/svg">
<path fill-rule="evenodd" clip-rule="evenodd" d="M4.71347 0.966465C4.62288 0.974995 4.53876 1.01711 4.47766 1.08453C4.41656 1.15195 4.3829 1.2398 4.3833 1.33079V8.70269H3.70589C3.33958 8.19188 2.73534 7.85451 2.06072 7.85451H2.00948C0.907864 7.85451 0 8.74614 0 9.84121V15.0101C0 16.1052 0.907883 16.9968 2.00948 16.9968H2.06072C2.73696 16.9968 3.34557 16.6615 3.71157 16.1486H13.3093C14.1836 16.1486 15 15.4743 15 14.5718V10.2852C15 9.41477 14.276 8.70269 13.4004 8.70269H12.7856V1.33079C12.7856 1.23417 12.7472 1.14149 12.6789 1.07317C12.6105 1.00484 12.5179 0.966465 12.4212 0.966465H4.74763C4.73625 0.965931 4.72485 0.965931 4.71347 0.966465ZM5.11195 1.69512H12.0569V8.70269H5.11195V1.69512ZM2.00948 8.58316H2.06072C2.77123 8.58316 3.34725 9.14992 3.34725 9.84121V15.0101C3.34725 15.7014 2.77123 16.2682 2.06072 16.2682H2.00948C1.29897 16.2682 0.728652 15.7014 0.728652 15.0101V9.84121C0.728652 9.14992 1.29897 8.58316 2.00948 8.58316ZM5.25996 10.2511H12.592C12.6887 10.2511 12.7813 10.2895 12.8496 10.3578C12.918 10.4261 12.9564 10.5188 12.9563 10.6154V12.4427C12.9564 12.5394 12.918 12.632 12.8496 12.7004C12.7813 12.7687 12.6887 12.8071 12.592 12.8071H5.25996C5.16333 12.8071 5.07066 12.7687 5.00234 12.7004C4.93402 12.632 4.89563 12.5394 4.89563 12.4427V10.6154C4.89563 10.5188 4.93402 10.4261 5.00234 10.3578C5.07066 10.2895 5.16333 10.2511 5.25996 10.2511Z" fill="black"/>
<path fill-rule="evenodd" clip-rule="evenodd" d="M6.15714 2.98978C6.10892 2.98917 6.06105 2.99814 6.01631 3.01617C5.97158 3.0342 5.93087 3.06093 5.89655 3.09482C5.86223 3.12871 5.83498 3.16909 5.81638 3.21359C5.79778 3.25809 5.78821 3.30584 5.78821 3.35407C5.78821 3.4023 5.79778 3.45006 5.81638 3.49456C5.83498 3.53906 5.86223 3.57943 5.89655 3.61331C5.93087 3.6472 5.97158 3.67393 6.01631 3.69197C6.06105 3.71 6.10892 3.71898 6.15714 3.71837H11.0092C11.0574 3.71898 11.1053 3.71 11.15 3.69197C11.1947 3.67393 11.2354 3.6472 11.2698 3.61331C11.3041 3.57943 11.3313 3.53906 11.3499 3.49456C11.3685 3.45006 11.3781 3.4023 11.3781 3.35407C11.3781 3.30584 11.3685 3.25809 11.3499 3.21359C11.3313 3.16909 11.3041 3.12871 11.2698 3.09482C11.2354 3.06093 11.1947 3.0342 11.15 3.01617C11.1053 2.99814 11.0574 2.98917 11.0092 2.98978H6.15714Z" fill="black"/>
<path fill-rule="evenodd" clip-rule="evenodd" d="M6.15714 4.40848C6.10892 4.40787 6.06105 4.41684 6.01631 4.43487C5.97158 4.45291 5.93087 4.47963 5.89655 4.51352C5.86223 4.54741 5.83498 4.58779 5.81638 4.63229C5.79778 4.67679 5.78821 4.72454 5.78821 4.77277C5.78821 4.821 5.79778 4.86875 5.81638 4.91325C5.83498 4.95775 5.86223 4.99813 5.89655 5.03202C5.93087 5.0659 5.97158 5.09263 6.01631 5.11067C6.06105 5.1287 6.10892 5.13767 6.15714 5.13706H11.0092C11.0574 5.13767 11.1053 5.1287 11.15 5.11067C11.1947 5.09263 11.2354 5.0659 11.2698 5.03202C11.3041 4.99813 11.3313 4.95775 11.3499 4.91325C11.3685 4.86875 11.3781 4.821 11.3781 4.77277C11.3781 4.72454 11.3685 4.67679 11.3499 4.63229C11.3313 4.58779 11.3041 4.54741 11.2698 4.51352C11.2354 4.47963 11.1947 4.45291 11.15 4.43487C11.1053 4.41684 11.0574 4.40787 11.0092 4.40848H6.15714Z" fill="black"/>
<path fill-rule="evenodd" clip-rule="evenodd" d="M6.15722 5.82916C6.10884 5.82829 6.06076 5.83708 6.01581 5.855C5.97086 5.87292 5.92992 5.89961 5.8954 5.93352C5.86088 5.96743 5.83346 6.00788 5.81474 6.05251C5.79602 6.09713 5.78638 6.14504 5.78638 6.19343C5.78638 6.24182 5.79602 6.28973 5.81474 6.33436C5.83346 6.37898 5.86088 6.41943 5.8954 6.45334C5.92992 6.48726 5.97086 6.51394 6.01581 6.53186C6.06076 6.54978 6.10884 6.55857 6.15722 6.5577H11.0092C11.0576 6.55857 11.1057 6.54978 11.1507 6.53186C11.1956 6.51394 11.2365 6.48726 11.2711 6.45334C11.3056 6.41943 11.333 6.37898 11.3517 6.33436C11.3704 6.28973 11.3801 6.24182 11.3801 6.19343C11.3801 6.14504 11.3704 6.09713 11.3517 6.05251C11.333 6.00788 11.3056 5.96743 11.2711 5.93352C11.2365 5.89961 11.1956 5.87292 11.1507 5.855C11.1057 5.83708 11.0576 5.82829 11.0092 5.82916H6.15722Z" fill="black"/>
<path fill-rule="evenodd" clip-rule="evenodd" d="M6.15717 7.24981C6.10879 7.24895 6.06072 7.25774 6.01577 7.27566C5.97083 7.29358 5.9299 7.32028 5.89538 7.35419C5.86086 7.3881 5.83345 7.42855 5.81473 7.47317C5.79602 7.51779 5.78638 7.5657 5.78638 7.61408C5.78638 7.66247 5.79602 7.71038 5.81473 7.755C5.83345 7.79962 5.86086 7.84006 5.89538 7.87398C5.9299 7.90789 5.97083 7.93458 6.01577 7.9525C6.06072 7.97042 6.10879 7.97921 6.15717 7.97835H11.0092C11.0576 7.97921 11.1056 7.97042 11.1506 7.9525C11.1955 7.93458 11.2365 7.90789 11.271 7.87398C11.3055 7.84006 11.3329 7.79962 11.3516 7.755C11.3703 7.71038 11.38 7.66247 11.38 7.61408C11.38 7.5657 11.3703 7.51779 11.3516 7.47317C11.3329 7.42855 11.3055 7.3881 11.271 7.35419C11.2365 7.32028 11.1955 7.29358 11.1506 7.27566C11.1056 7.25774 11.0576 7.24895 11.0092 7.24981H6.15717Z" fill="black"/>
<path fill-rule="evenodd" clip-rule="evenodd" d="M2.03665 9.34302C1.63578 9.34302 1.30481 9.67399 1.30481 10.0749C1.30481 10.4757 1.63578 10.8067 2.03665 10.8067C2.43752 10.8067 2.76854 10.4757 2.76854 10.0749C2.76854 9.67399 2.43752 9.34302 2.03665 9.34302Z" fill="black"/>
<path fill-rule="evenodd" clip-rule="evenodd" d="M2.0369 10.0718C2.04066 10.0718 2.04048 10.0718 2.04048 10.0753C2.04048 10.0791 2.04068 10.0789 2.0369 10.0789C2.03311 10.0789 2.03333 10.0791 2.03333 10.0753C2.03333 10.0716 2.03311 10.0718 2.0369 10.0718Z" fill="black"/>
</svg>
